<?xml version="1.0" encoding="UTF-8" standalone="no"?>
<!-- Created by Argel Alfaro -->

<svg
   xmlns:dc="http://purl.org/dc/elements/1.1/"
   xmlns:cc="http://creativecommons.org/ns#"
   xmlns:rdf="http://www.w3.org/1999/02/22-rdf-syntax-ns#"
   xmlns:svg="http://www.w3.org/2000/svg"
   xmlns="http://www.w3.org/2000/svg"
   xmlns:sodipodi="http://sodipodi.sourceforge.net/DTD/sodipodi-0.dtd"
   xmlns:inkscape="http://www.inkscape.org/namespaces/inkscape"
   width="24.588751mm"
   height="24.490068mm"
   viewBox="0 0 24.588751 24.490068"
   version="1.1"
   id="svg8"
   inkscape:version="0.92.4 (5da689c313, 2019-01-14)"
   sodipodi:docname="favicon.svg">
  <defs
     id="defs2" />
  <sodipodi:namedview
     id="base"
     pagecolor="#ffffff"
     bordercolor="#666666"
     borderopacity="1.0"
     inkscape:pageopacity="0.0"
     inkscape:pageshadow="2"
     inkscape:zoom="2"
     inkscape:cx="-106.17264"
     inkscape:cy="-30.890199"
     inkscape:document-units="mm"
     inkscape:current-layer="layer1"
     showgrid="false"
     fit-margin-top="0"
     fit-margin-left="0"
     fit-margin-right="0"
     fit-margin-bottom="0"
     inkscape:window-width="1920"
     inkscape:window-height="1021"
     inkscape:window-x="0"
     inkscape:window-y="0"
     inkscape:window-maximized="1" />
  <metadata
     id="metadata5">
    <rdf:RDF>
      <cc:Work
         rdf:about="">
        <dc:format>image/svg+xml</dc:format>
        <dc:type
           rdf:resource="http://purl.org/dc/dcmitype/StillImage" />
        <dc:title></dc:title>
      </cc:Work>
    </rdf:RDF>
  </metadata>
  <g
     inkscape:label="Capa 1"
     inkscape:groupmode="layer"
     id="layer1"
     transform="translate(-42.363467,-166.09722)">
    <g
       id="g826"
       transform="matrix(0.22772245,0,0,0.22772245,32.930643,146.60756)"
       style="fill:#ffff00;fill-opacity:1;stroke:#ffff00;stroke-opacity:1">
      <path
         style="fill:#ffff00;fill-opacity:1;stroke:#ffff00;stroke-width:0.35277778;stroke-opacity:1"
         d="m 83.961282,192.24532 c -7.060827,-1.59224 -12.679414,-3.99459 -18.664624,-7.98046 -4.557617,-3.03516 -10.066355,-8.24112 -13.1747,-12.45057 -5.352054,-7.24799 -8.908333,-15.89855 -10.151982,-24.69445 -0.496407,-3.51091 -0.491147,-11.50508 0.01,-15.16509 3.146605,-22.98149 21.244301,-41.60763 44.274208,-45.566985 3.606602,-0.620056 5.199542,-0.700764 10.759722,-0.545152 4.189124,0.11724 7.473924,0.394829 9.172224,0.775117 21.28869,4.767036 36.8739,20.06747 41.86428,41.09933 1.31374,5.53676 1.5396,14.74043 0.50965,20.76849 -2.34209,13.70783 -9.83893,25.96504 -20.9962,34.32846 -3.34853,2.51002 -10.22365,6.28639 -11.4448,6.28639 -1.24207,0 -1.5314,-1.09732 -0.94777,-3.5945 0.9276,-3.96894 1.36153,-10.39639 0.95465,-14.14065 l -0.36869,-3.39293 1.21886,-2.98962 c 2.63587,-6.4653 3.37358,-12.14633 2.10139,-16.18271 -0.51665,-1.63922 -0.55374,-2.12547 -0.19507,-2.55764 0.24358,-0.29349 0.60521,-0.53362 0.80362,-0.53362 0.19842,0 1.52067,-0.55789 2.93833,-1.23976 4.92026,-2.36655 9.27657,-6.58029 11.61892,-11.23866 0.67044,-1.33334 1.77157,-3.0359 2.44695,-3.78347 2.20002,-2.43516 2.05972,-3.3607 -0.99985,-6.59574 -2.21027,-2.33704 -4.30872,-3.89013 -7.27927,-5.38748 -3.38257,-1.70502 -8.16719,-4.72193 -9.14553,-5.76663 -1.11634,-1.19207 -2.76135,-1.19344 -5.3158,-0.004 -3.27283,1.52339 -4.2359,2.43852 -4.2359,4.02504 0,2.29895 0.51105,3.18021 1.84335,3.17869 1.78251,-0.002 3.37849,-1.14398 3.51269,-2.51339 0.0874,-0.89209 0.31581,-1.19698 1.04051,-1.38914 0.51067,-0.1354 1.26473,-0.58243 1.67569,-0.99339 1.00182,-1.00182 1.33056,-0.95463 3.49254,0.50133 2.44064,1.64362 4.04662,3.90361 5.38001,7.57091 0.59965,1.64924 1.33209,3.37075 1.62765,3.82559 0.94197,1.44962 0.38536,2.25018 -2.3225,3.34044 -2.93456,1.18153 -5.76336,3.58411 -6.84619,5.81465 -0.71913,1.48134 -0.90525,1.61216 -3.40652,2.3944 -3.68175,1.15141 -5.71694,2.52038 -6.66815,4.48533 -0.83568,1.72628 -1.25973,2.01286 -2.9739,2.00984 -4.22362,-0.007 -7.030311,-3.35388 -5.92029,-7.05882 0.3211,-1.07173 0.71512,-1.49893 1.92092,-2.08264 0.83432,-0.40389 1.85238,-0.73435 2.26235,-0.73435 0.67851,0 0.72975,-0.15035 0.57112,-1.67569 -0.39879,-3.83466 -0.36648,-5.56204 0.11458,-6.12601 0.42637,-0.49985 0.359,-0.62236 -0.54908,-0.9985 -0.5693,-0.23581 -1.38431,-0.80048 -1.81114,-1.25482 -0.64204,-0.68343 -0.73502,-1.06899 -0.53841,-2.2327 0.42941,-2.54167 -1.90276,-5.70694 -4.849679,-6.58208 -2.212209,-0.65696 -3.456767,-0.66931 -5.814579,-0.0577 -2.384456,0.61852 -4.398761,2.04118 -5.760818,4.06874 -1.04411,1.55427 -1.08585,1.7519 -0.903058,4.27543 0.264244,3.64798 0.642302,4.72375 2.927268,8.32953 2.862549,4.51723 2.941077,4.70056 2.943469,6.87204 0.0061,5.53377 -2.967274,9.11218 -8.015379,9.64638 -3.182285,0.33676 -5.355781,1.07218 -7.34172,2.48413 -1.43778,1.02222 -2.061596,1.24327 -3.513211,1.24489 -2.730261,0.003 -4.440449,0.62775 -5.896025,2.15372 -2.161592,2.26614 -3.456917,1.72807 -3.4485,-1.4325 0.01046,-3.92822 1.605031,-8.4905 3.868591,-11.06855 1.04459,-1.18972 1.074513,-1.19848 3.793017,-1.11025 3.44957,0.11196 3.182941,0.0445 3.445678,0.87228 0.259222,0.81673 0.727473,0.87856 2.023148,0.26709 1.184787,-0.55913 1.609154,-2.3926 0.815908,-3.52511 -0.3003,-0.42874 -0.546001,-1.08022 -0.546001,-1.44773 0,-0.5208 -0.175105,-0.62128 -0.79375,-0.45549 -0.436562,0.11699 -2.159336,0.21488 -3.828385,0.21753 -2.561698,0.004 -3.218971,0.12904 -4.217431,0.8019 -1.45443,0.98014 -8.995875,11.43288 -10.932709,15.15316 -1.513284,2.90673 -2.944161,7.75157 -2.604974,8.82026 0.391186,1.23252 1.785909,1.72059 6.382917,2.23365 8.69136,0.97001 11.028368,0.65511 15.640237,-2.10743 3.132358,-1.8763 3.574692,-1.76574 4.668694,1.16699 0.456139,1.22278 1.456472,2.68356 2.889332,4.21928 1.325957,1.42113 2.998209,3.81207 4.233612,6.05312 1.123085,2.03729 2.834012,4.89479 3.802062,6.35 l 1.760097,2.64583 -0.226607,2.29306 c -0.275816,2.79104 -1.19047,7.34185 -1.647109,8.19509 -0.444683,0.8309 -3.014641,0.79011 -7.01192,-0.11128 z m 4.906041,-3.76228 c 0.191019,-0.72761 0.454985,-2.30819 0.586596,-3.51241 0.238491,-2.18222 0.233436,-2.19863 -1.521534,-4.93889 -0.968453,-1.51217 -2.52711,-4.17815 -3.463679,-5.9244 -1.026061,-1.9131 -2.444118,-3.91142 -3.567906,-5.02787 -1.025775,-1.01908 -2.205108,-2.5272 -2.620733,-3.35139 -0.415629,-0.82418 -0.786642,-1.53576 -0.824473,-1.58127 -0.03783,-0.0455 -1.169258,0.46435 -2.514277,1.13303 -3.444944,1.71265 -6.417818,2.10899 -12.069366,1.60904 -8.516622,-0.75339 -10.446988,-1.30642 -11.713618,-3.35588 -0.84338,-1.36461 -0.888686,-2.99341 -0.176756,-6.35441 0.78247,-3.69401 3.192534,-8.10279 8.380258,-15.33017 5.885266,-8.19918 5.966354,-8.25259 12.800577,-8.43192 4.447097,-0.1167 4.661233,-0.0893 5.519785,0.70555 0.491264,0.45483 1.238211,1.6649 1.659886,2.68904 0.740424,1.79831 0.763094,2.44145 0.185678,5.26803 -0.08765,0.42906 -0.895082,1.34187 -1.794295,2.02847 -1.934348,1.47698 -4.042662,1.69724 -5.473409,0.57182 -0.473047,-0.3721 -1.455106,-0.78817 -2.182352,-0.92461 -1.065975,-0.19997 -1.419161,-0.12012 -1.822173,0.41197 -0.715829,0.9451 -1.794711,3.27203 -2.201745,4.74873 l -0.349092,1.26648 1.455288,-0.50812 c 0.800409,-0.27946 2.402236,-0.59671 3.559616,-0.705 1.469778,-0.13751 2.586749,-0.50298 3.704166,-1.21199 1.95045,-1.23758 5.583516,-2.40092 7.497995,-2.40092 3.229603,0 5.567123,-2.63742 5.567123,-6.28138 0,-1.55981 -0.229708,-2.18365 -1.579312,-4.28918 -0.868624,-1.35514 -1.990852,-3.25094 -2.493843,-4.21289 -1.119484,-2.14098 -2.041112,-7.03381 -1.733955,-9.20544 0.471639,-3.33454 2.906243,-6.42616 6.588195,-8.36611 1.726685,-0.90975 2.165121,-0.9825 5.921693,-0.9825 3.492662,0 4.256563,0.10685 5.492118,0.76821 2.880961,1.54208 6.056921,6.29519 5.723641,8.56595 -0.1293,0.881 0.0316,1.0834 1.38309,1.74001 1.93424,0.93973 2.53924,2.23341 1.72234,3.68289 -0.60343,1.07072 -0.76038,3.24728 -0.25661,3.55863 0.16843,0.1041 0.23373,1.34378 0.1451,2.75484 -0.13581,2.16217 -0.298,2.69039 -1.03147,3.35933 -0.5408,0.49322 -1.31946,0.79375 -2.05653,0.79375 -0.65241,0 -1.4373,0.0964 -1.74421,0.21414 -0.77924,0.29901 -0.69635,1.7642 0.14753,2.60809 1.10408,1.10407 2.16086,0.86988 3.26277,-0.72306 1.21251,-1.75282 4.0921,-3.61875 7.11717,-4.61181 1.27604,-0.41889 2.32006,-0.87082 2.32006,-1.00429 0,-0.13346 0.48794,-0.97931 1.08431,-1.87966 1.12896,-1.70442 3.31153,-3.4958 5.89375,-4.83739 1.71283,-0.88989 1.71238,-0.69512 0.0111,-4.83256 -1.13082,-2.75019 -3.53681,-5.59165 -4.34072,-5.12633 -0.24794,0.14351 -0.98497,0.96132 -1.63784,1.81736 -1.46152,1.91633 -3.35337,2.93187 -5.84696,3.13866 -1.63885,0.1359 -2.02528,0.0419 -2.79936,-0.68121 -1.80468,-1.68578 -2.49006,-4.23412 -1.93106,-7.17994 0.40009,-2.10838 1.13366,-2.7858 5.24176,-4.84052 2.38194,-1.19136 3.28612,-1.45912 5.00617,-1.48249 1.67263,-0.0227 2.30058,0.13222 3.09024,0.76252 2.34583,1.87241 6.12096,4.31524 8.57577,5.54924 4.69962,2.36244 7.9665,4.8714 10.43807,8.01644 0.87176,1.10929 1.75568,2.50647 1.96427,3.10484 0.53167,1.52514 -0.14174,3.69796 -1.81281,5.84922 -0.7387,0.95097 -1.85205,2.67471 -2.47411,3.83054 -1.43364,2.6638 -3.67832,5.58629 -5.77471,7.51845 -1.87006,1.72358 -5.78155,4.32877 -7.70319,5.1306 -1.25857,0.52515 -1.29347,0.58682 -0.97014,1.71421 0.94736,3.30326 0.0921,9.83475 -2.00146,15.28523 l -1.21955,3.175 -0.10265,7.23195 c -0.0565,3.97756 -0.23443,7.85738 -0.39549,8.6218 l -0.29283,1.38985 1.73272,-1.00273 c 3.8668,-2.23771 7.2072,-4.77442 10.58233,-8.03623 9.01022,-8.70768 14.11732,-19.4068 15.35456,-32.16709 1.1711,-12.078 -2.54091,-24.89616 -10.1317,-34.98645 -2.61912,-3.48156 -8.57333,-9.107276 -12.14086,-11.47107 -12.24696,-8.114647 -26.657745,-10.666396 -40.595533,-7.18834 -19.553038,4.879294 -34.006937,20.32998 -37.94954,40.56665 -0.852243,4.3744 -0.832182,13.23555 0.04033,17.81527 3.774494,19.81188 18.151156,35.275 37.414803,40.24228 5.334042,1.37542 5.708315,1.35774 6.14094,-0.29019 z m -39.64297,-48.05287 c -0.544238,-0.60138 -0.594489,-1.10017 -0.382066,-3.79236 0.918816,-11.6448 5.631388,-22.0951 13.522143,-29.98585 8.205997,-8.205998 18.449291,-12.872643 30.083034,-13.705244 2.90648,-0.20801 3.453451,-0.15889 3.96875,0.356409 1.477705,1.477706 0.267952,2.66394 -2.716752,2.66394 -4.75197,0 -11.405384,1.61515 -16.666242,4.045815 -9.165175,4.23457 -17.540322,12.79395 -21.483953,21.95656 -2.240374,5.20526 -3.69094,11.55425 -3.69094,16.1549 0,2.71383 -1.26363,3.82004 -2.633974,2.30583 z"
         id="path840"
         inkscape:connector-curvature="0" />
      <path
         style="fill:#ffff00;fill-opacity:1;stroke:#ffff00;stroke-width:0.35277778;stroke-opacity:1"
         d="M 84.313883,192.29541 C 67.018765,188.62774 52.376,176.55721 45.732364,160.49134 c -1.645256,-3.97862 -2.947163,-8.52993 -3.599355,-12.58294 -0.707456,-4.39642 -0.682363,-12.63842 0.05163,-16.95955 3.766626,-22.17465 20.068881,-39.267299 42.171398,-44.216031 3.196791,-0.715759 4.603157,-0.81992 11.070343,-0.81992 6.46719,0 7.87355,0.104161 11.07035,0.81992 10.80962,2.420264 19.81276,7.4586 27.49079,15.384381 10.01483,10.33801 15.24148,23.09584 15.23539,37.18839 -0.005,11.30405 -2.92509,20.95274 -9.20394,30.41083 -2.96852,4.4716 -9.93968,11.44276 -14.41129,14.41129 -4.51818,2.99944 -8.71275,5.08067 -9.72679,4.82616 -1.12034,-0.28118 -1.23136,-0.83561 -0.68367,-3.41432 0.92145,-4.33846 1.32477,-10.52945 0.9254,-14.20474 -0.37082,-3.41249 -0.36861,-3.43091 0.6951,-5.79347 2.64839,-5.88221 3.65801,-13.44572 2.25598,-16.90055 -0.77691,-1.91442 -0.46931,-2.42935 2.06698,-3.46018 4.95282,-2.01298 9.90047,-6.19554 12.20931,-10.32131 1.53857,-2.74933 2.1378,-3.69819 3.69939,-5.85784 0.68173,-0.94282 1.2395,-2.03772 1.2395,-2.43311 0,-0.73525 -1.67357,-2.97975 -3.65426,-4.90091 -1.42764,-1.38473 -5.10124,-3.79399 -7.85884,-5.15406 -2.42792,-1.19748 -7.13071,-4.28598 -7.85497,-5.15867 -1.0598,-1.27697 -4.85559,-0.27285 -8.0604,2.13227 -0.99717,0.74835 -1.14653,1.06792 -1.14653,2.45317 0,2.2038 0.47554,2.95777 1.8645,2.95615 1.76536,-0.002 3.35797,-1.14982 3.49154,-2.51632 0.0938,-0.95983 0.29818,-1.19378 1.25855,-1.44087 0.63059,-0.16225 1.14652,-0.44362 1.14652,-0.62528 0,-0.18165 0.31525,-0.49899 0.70054,-0.70519 0.97105,-0.51969 2.8996,0.52374 4.99563,2.70285 1.76156,1.83137 2.53968,3.2178 3.82737,6.81946 0.45091,1.26118 1.04648,2.55906 1.32351,2.88417 0.92826,1.08938 0.3563,1.81981 -2.57225,3.28488 -3.89168,1.94691 -5.22888,3.06884 -6.40073,5.3703 -0.965,1.89521 -1.08945,1.9975 -3.1153,2.56057 -3.84598,1.06895 -6.20784,2.59854 -7.28081,4.71521 -0.90699,1.78923 -1.18429,1.98648 -2.8024,1.99336 -2.90918,0.0124 -5.35149,-1.60911 -5.98884,-3.97607 -0.764509,-2.83916 0.40946,-4.86187 3.24334,-5.58817 1.60733,-0.41195 1.72094,-0.5147 1.68214,-1.52149 -0.0229,-0.59383 -0.19629,-1.50459 -0.38534,-2.02389 -0.22465,-0.61709 -0.22261,-1.16062 0.006,-1.56894 0.20204,-0.36103 0.22612,-0.94956 0.0571,-1.39426 -0.19371,-0.50949 -0.12482,-1.00901 0.20386,-1.47827 0.45583,-0.65078 0.40951,-0.74477 -0.56612,-1.14889 -1.73225,-0.71752 -2.51129,-1.98647 -2.2577,-3.67751 0.18665,-1.24465 0.055,-1.68311 -0.95798,-3.19077 -1.521877,-2.26506 -3.037393,-3.24962 -5.469912,-3.55354 -3.995977,-0.49927 -8.030538,1.24665 -10.028664,4.33981 -1.046628,1.62021 -1.078629,1.78558 -0.892778,4.6133 0.22377,3.40466 0.885281,5.06232 3.902226,9.77849 l 2.023805,3.16366 -0.15264,2.56404 c -0.115097,1.93339 -0.404188,3.05019 -1.175353,4.54055 -1.435717,2.77469 -3.183572,3.95354 -6.520691,4.39791 -3.4914,0.46491 -5.602062,1.18313 -7.441131,2.5321 -1.286664,0.94377 -1.937955,1.15098 -4.17061,1.32688 -3.120902,0.24587 -5.121852,1.10212 -5.845433,2.50136 -0.58652,1.13421 -1.886181,1.36729 -2.629552,0.47158 -0.664069,-0.80015 -0.198519,-5.56166 0.817446,-8.36062 0.806986,-2.22322 3.135533,-5.8692 3.807029,-5.96096 0.177503,-0.0242 1.458572,-0.0639 2.846821,-0.0882 2.349023,-0.041 2.572289,0.0211 3.219054,0.8959 0.686171,0.92809 0.709756,0.93255 1.863499,0.35277 1.436263,-0.72175 2.02095,-2.8507 1.071146,-3.90022 -0.310145,-0.34271 -0.563899,-0.86236 -0.563899,-1.15479 0,-0.76815 -7.097189,-0.47884 -8.724034,0.35563 -1.423417,0.73012 -9.791144,12.3956 -11.523674,16.0652 -1.279648,2.71036 -2.475912,7.31643 -2.159282,8.31404 0.318235,1.00267 1.854803,1.46459 6.708379,2.01664 6.674487,0.75916 10.002231,0.53865 12.993167,-0.86097 1.318694,-0.6171 2.864034,-1.4541 3.434089,-1.86001 1.14095,-0.81243 2.406699,-0.80503 2.81136,0.0164 0.143369,0.29105 0.635829,1.39759 1.094359,2.45898 0.5095,1.17938 1.600073,2.68838 2.804524,3.88056 1.296285,1.28307 2.615416,3.15184 3.854115,5.46001 1.035808,1.9301 2.742282,4.7876 3.79217,6.35 1.904704,2.83451 1.908404,2.84536 1.690776,4.9574 -0.283884,2.755 -1.240497,7.59128 -1.657258,8.37847 -0.426939,0.80642 -2.634506,0.78379 -6.652024,-0.0682 z m 4.833401,-4.9589 c 0.71156,-3.83618 0.606076,-4.63567 -0.91398,-6.92716 -0.754733,-1.13777 -2.289919,-3.73555 -3.411523,-5.77284 -1.192192,-2.16551 -2.871167,-4.58406 -4.041962,-5.82242 -1.101478,-1.16504 -2.285231,-2.67316 -2.630566,-3.35139 -0.345334,-0.67822 -0.667921,-1.28014 -0.716862,-1.33759 -0.04894,-0.0574 -1.055127,0.38651 -2.23597,0.98657 -4.113256,2.09021 -6.835159,2.32484 -16.106149,1.38837 -4.212851,-0.42555 -6.213673,-1.11293 -7.584722,-2.60576 -0.778286,-0.84741 -0.877951,-1.25731 -0.847967,-3.4875 0.0411,-3.0569 1.32033,-7.11037 3.304151,-10.46978 2.294057,-3.88477 8.768841,-12.78989 10.41516,-14.32453 0.988589,-0.92153 2.138513,-1.59913 3.143072,-1.85208 1.984849,-0.49979 8.846727,-0.5233 9.762029,-0.0335 1.204366,0.64456 2.573246,3.8227 2.534804,5.88507 -0.04767,2.55731 -0.277404,3.08499 -1.903921,4.37322 -1.929331,1.52806 -4.272843,1.78633 -5.735268,0.63206 -0.563074,-0.44442 -1.62381,-0.86397 -2.35719,-0.93232 -1.247605,-0.11628 -1.389785,-0.0268 -2.209273,1.39071 -0.48172,0.83324 -1.115652,2.33718 -1.408739,3.3421 l -0.532885,1.8271 1.469488,-0.51846 c 0.808218,-0.28516 2.41992,-0.61781 3.58156,-0.73922 1.425801,-0.14903 2.618451,-0.54189 3.67051,-1.20909 2.018855,-1.28032 4.202574,-1.99112 7.318155,-2.38205 1.38085,-0.17327 2.937807,-0.59492 3.459907,-0.93702 1.428221,-0.93581 2.31974,-2.97869 2.31974,-5.31561 0,-1.79847 -0.178467,-2.2862 -1.715551,-4.68836 -3.217193,-5.02784 -4.045462,-7.45655 -4.042361,-11.85329 0.0021,-2.96643 0.796646,-4.75869 3.155259,-7.11731 2.367064,-2.36706 4.911753,-3.40246 8.776264,-3.57093 4.11982,-0.1796 6.492486,0.6349 8.641746,2.96656 1.74552,1.89367 3.26943,5.02494 3.11197,6.39438 -0.091,0.79154 0.11356,1.10699 1.0895,1.68007 0.66086,0.38806 1.5109,1.12284 1.88897,1.63285 0.65959,0.88974 0.66293,0.9789 0.0825,2.20215 -0.41615,0.87696 -0.53528,1.68862 -0.38168,2.60049 0.12281,0.7291 0.22512,1.64313 0.22736,2.03118 0.029,5.0252 -0.17861,5.39226 -3.26263,5.76866 -1.78634,0.21802 -1.87768,0.27987 -1.98071,1.3412 -0.081,0.83386 0.0934,1.25372 0.69585,1.6757 1.28985,0.90344 2.26659,0.70324 3.09303,-0.63398 1.22798,-1.98691 3.91009,-3.71819 7.66021,-4.94461 1.39437,-0.45601 1.91424,-0.83092 2.23884,-1.61457 0.60089,-1.45069 4.12135,-4.69536 6.28286,-5.79068 1.00819,-0.51089 1.83306,-0.98073 1.83306,-1.0441 0,-0.0634 -0.31128,-1.01998 -0.69174,-2.12579 -1.49957,-4.35857 -3.97365,-7.65765 -5.21976,-6.96029 -0.30926,0.17307 -0.97814,0.92777 -1.48641,1.67712 -1.18318,1.74438 -3.36954,2.94711 -5.8164,3.19965 -1.8392,0.18982 -1.98587,0.1429 -3.13025,-1.00148 -1.53239,-1.53239 -2.14149,-4.03134 -1.64071,-6.73136 0.389,-2.09733 1.03254,-2.77737 4.25567,-4.49707 4.41659,-2.35646 7.7757,-2.48182 10.02543,-0.37415 1.32417,1.24054 4.55016,3.29161 7.36976,4.68565 4.80034,2.37334 9.21969,5.95586 11.60219,9.40523 1.73779,2.51596 1.3566,5.1235 -1.17375,8.02907 -0.53766,0.6174 -1.54757,2.20725 -2.24423,3.53301 -2.612,4.97063 -6.77948,9.08622 -11.90083,11.75266 l -2.69686,1.40412 0.34812,1.50078 c 0.82472,3.55553 -0.22189,10.48213 -2.38508,15.78459 -0.89229,2.18722 -0.93778,2.61214 -1.01965,9.52499 -0.0471,3.97961 -0.21471,7.86055 -0.37242,8.62431 l -0.28674,1.38867 2.0853,-1.16557 c 5.81526,-3.25041 12.30797,-9.04732 16.12999,-14.40144 4.31515,-6.04491 7.4958,-13.50769 8.90785,-20.9006 0.86198,-4.51297 0.87642,-13.34351 0.0294,-17.99166 -0.84208,-4.62112 -2.7296,-10.06773 -4.98684,-14.38998 -7.20037,-13.78754 -19.79813,-23.299556 -35.21476,-26.589115 -4.8036,-1.02498 -14.359476,-1.10848 -19.103671,-0.166929 -18.380695,3.647901 -32.791696,16.040064 -38.951557,33.494834 -2.00491,5.68117 -2.62925,9.56948 -2.644666,16.47063 -0.01529,6.84512 0.449804,10.02689 2.318335,15.86007 4.767268,14.88243 16.411675,26.88105 31.32759,32.28057 3.288972,1.19059 7.945003,2.2847 9.347785,2.19661 1.011284,-0.0635 1.076099,-0.16665 1.482838,-2.35947 z M 49.425723,140.54427 c -0.79741,-0.55853 -0.817246,-0.68849 -0.578842,-3.79236 0.89263,-11.62142 5.227466,-21.35429 13.161135,-29.55028 8.267148,-8.540504 18.405792,-13.277646 30.514198,-14.257346 2.6999,-0.21845 3.181943,-0.169818 3.792361,0.382603 1.554999,1.407254 0.304835,2.639569 -2.679859,2.641596 -9.808728,0.0067 -21.656818,5.205687 -29.141878,12.787667 -7.586115,7.68434 -12.634511,19.28095 -12.634511,29.02257 0,1.66026 -0.152956,2.31464 -0.645139,2.76006 -0.791008,0.71585 -0.773366,0.7158 -1.787465,0.005 z"
         id="path838"
         inkscape:connector-curvature="0" />
      <path
         style="fill:#ffff00;fill-opacity:1;stroke:#ffff00;stroke-width:0.35277778;stroke-opacity:1"
         d="m 84.313883,192.23023 c -7.159029,-1.49663 -14.308776,-4.61881 -20.352793,-8.88773 -3.95029,-2.79011 -9.551976,-8.3918 -12.342088,-12.34209 -4.21734,-5.97099 -7.449137,-13.31457 -9.005321,-20.46271 -0.669183,-3.07381 -0.782484,-4.66695 -0.782484,-11.00258 0,-6.33563 0.113301,-7.92877 0.782484,-11.00258 4.582441,-21.04888 20.778578,-37.244016 41.810124,-41.807532 4.850843,-1.052557 16.372525,-1.150731 21.151955,-0.180232 10.83776,2.200688 19.81822,7.059598 27.79979,15.041174 7.96966,7.96966 12.4633,16.20183 14.84171,27.18945 0.68371,3.15852 0.80182,4.74349 0.80182,10.75972 0,5.95014 -0.12145,7.61401 -0.77518,10.62004 -1.56177,7.18152 -4.24933,13.57258 -8.22747,19.56505 -2.93923,4.42752 -9.94174,11.44216 -14.32999,14.35481 -4.54015,3.01348 -8.97139,5.16763 -9.97497,4.8491 -0.88763,-0.28172 -0.89078,-0.11727 0.14183,-7.40845 0.59943,-4.23245 0.67845,-8.4337 0.21566,-11.46527 -0.27013,-1.7695 -0.18989,-2.19285 0.91163,-4.80968 1.89521,-4.50233 2.69838,-7.96344 2.73152,-11.77088 0.0214,-2.45923 -0.13314,-3.71868 -0.58054,-4.73112 -0.33535,-0.75886 -0.52669,-1.63198 -0.4252,-1.94028 0.10149,-0.3083 1.73126,-1.30064 3.62171,-2.20519 5.56048,-2.66061 9.45117,-6.37636 12.03397,-11.49285 0.59885,-1.18631 1.26665,-2.26684 1.48399,-2.40116 0.67034,-0.4143 2.44284,-3.43379 2.44284,-4.16144 0,-0.75691 -1.95504,-3.37815 -3.66899,-4.91924 -1.73389,-1.55902 -4.77891,-3.5847 -7.26712,-4.8344 -2.86647,-1.43969 -6.92619,-4.0225 -8.1932,-5.21255 -1.54616,-1.45224 -3.74197,-1.0619 -7.68926,1.3669 -1.75007,1.07683 -1.75643,1.08751 -1.75643,2.95168 0,2.55635 0.76344,3.509 2.42454,3.02544 1.97296,-0.57434 2.81112,-1.30856 2.93246,-2.5688 0.0931,-0.96667 0.27011,-1.17164 1.09359,-1.2662 0.54039,-0.062 1.17389,-0.41924 1.40777,-0.79375 0.89991,-1.44097 3.09081,-0.63686 5.61376,2.06038 1.78476,1.90805 2.56696,3.29984 3.81253,6.78369 0.45091,1.26118 1.04648,2.55906 1.32351,2.88417 0.94154,1.10497 0.36781,1.82711 -2.61337,3.28944 -3.87926,1.90286 -5.07834,2.91084 -6.38986,5.3715 -1.05184,1.97345 -1.2086,2.10828 -2.90693,2.50031 -2.64705,0.61101 -5.57212,2.16273 -6.73405,3.57236 -0.56225,0.68211 -1.02228,1.43082 -1.02228,1.66379 0,2.20689 -4.97701,1.91753 -7.32013,-0.42559 -1.13479,-1.13479 -1.17565,-1.27037 -1.07489,-3.56722 0.0999,-2.27768 0.1603,-2.42496 1.31156,-3.1992 0.66375,-0.44639 1.78711,-0.9044 2.49635,-1.01782 l 1.28954,-0.2062 -0.31506,-1.64041 c -0.17329,-0.90222 -0.31002,-2.03728 -0.30384,-2.52235 0.006,-0.48507 0.0111,-1.46438 0.011,-2.17625 -1.4e-4,-0.71187 0.17242,-1.40103 0.38348,-1.53147 0.22221,-0.13734 -0.27835,-0.65703 -1.18927,-1.23473 -1.73214,-1.09849 -2.16955,-1.92904 -1.68974,-3.2085 0.23879,-0.63679 0.1159,-1.2437 -0.49897,-2.46414 -1.987997,-3.94593 -5.899022,-5.42979 -10.617841,-4.02845 -2.434569,0.72299 -3.973318,1.83413 -5.324517,3.84488 -0.958511,1.42639 -1.146528,2.03459 -1.146528,3.70886 0,3.781 0.930021,6.18423 4.444743,11.48549 1.308414,1.97348 1.37529,2.20983 1.359796,4.80577 -0.03217,5.39088 -2.967017,8.77599 -8.017535,9.24761 -2.661899,0.24857 -5.866885,1.37936 -7.280238,2.56861 -0.575567,0.48431 -1.46938,0.85454 -2.063017,0.85454 -3.193095,0 -6.966552,1.34787 -7.587248,2.71016 -0.451315,0.99052 -1.81935,1.42595 -2.556919,0.81382 -0.675306,-0.56046 -0.671647,-2.94826 0.0094,-6.16366 0.585585,-2.7645 1.79723,-5.41421 3.294066,-7.20368 0.976437,-1.16734 1.079518,-1.20148 3.751921,-1.24279 2.595868,-0.0401 2.78668,0.01 3.448828,0.90558 0.692365,0.93648 0.715137,0.94089 1.863999,0.36084 1.507673,-0.76119 1.866755,-2.32572 0.989922,-4.3131 l -0.618782,-1.4025 -3.721577,0.22007 c -2.353348,0.13917 -4.146563,0.4334 -4.87754,0.80031 -1.472176,0.73895 -9.375433,11.70114 -11.388997,15.79708 -1.444809,2.93899 -2.634011,7.45413 -2.267458,8.60903 0.29856,0.94068 2.668376,1.66816 6.80056,2.08761 8.162272,0.82854 11.566986,0.32257 15.534716,-2.30861 1.033129,-0.68512 2.207541,-1.19648 2.609806,-1.13638 0.783308,0.11704 0.819263,0.17021 2.086423,3.0859 0.498577,1.1472 1.684517,2.79053 2.950358,4.08824 1.419003,1.45473 2.742615,3.3514 4.015754,5.75437 1.044498,1.97142 2.676892,4.7692 3.62754,6.21727 l 1.728449,2.63287 -0.382803,3.08056 c -0.450811,3.62782 -1.008179,6.40349 -1.458785,7.26465 -0.425898,0.81395 -2.296298,0.77643 -6.64821,-0.13336 z m 4.905745,-5.04671 c 0.658354,-3.57096 0.521914,-4.52951 -0.966406,-6.78943 -0.743779,-1.12938 -2.275696,-3.72029 -3.40426,-5.75758 -1.196541,-2.16 -2.889825,-4.58721 -4.06188,-5.82242 -1.105471,-1.16504 -2.292494,-2.67316 -2.637829,-3.35139 -0.345334,-0.67822 -0.663818,-1.27604 -0.707746,-1.32847 -0.04393,-0.0524 -1.333428,0.50319 -2.865553,1.23472 -2.692886,1.28575 -2.932579,1.33391 -7.195404,1.44576 -4.920434,0.1291 -12.442889,-0.66241 -14.00166,-1.47324 -2.71588,-1.41274 -3.371584,-3.50988 -2.426131,-7.75951 0.860665,-3.86852 3.105747,-8.11687 7.765963,-14.69545 6.468423,-9.13114 6.481861,-9.14064 13.276803,-9.39058 2.840618,-0.10448 4.803376,-0.0275 5.238616,0.20541 1.177823,0.63035 2.493631,3.71182 2.493631,5.8398 0,2.49242 -0.371285,3.35944 -1.956308,4.5684 -1.922184,1.46612 -4.236861,1.62967 -5.695367,0.40242 -0.725548,-0.61051 -1.511361,-0.9199 -2.33645,-0.9199 -1.033241,0 -1.368383,0.20252 -1.984278,1.19906 -0.763276,1.23501 -2.236432,5.17081 -2.017399,5.38984 0.06773,0.0677 0.670272,-0.10546 1.338993,-0.38488 0.668721,-0.2794 2.240908,-0.61966 3.493749,-0.75611 1.662199,-0.18104 2.802333,-0.5661 4.218171,-1.42459 2.139276,-1.29716 5.36623,-2.25943 7.576947,-2.25943 2.823736,0 4.947066,-2.34864 5.342347,-5.90922 0.172847,-1.55695 0.0576,-1.87518 -1.628867,-4.49772 -3.54094,-5.50634 -4.234872,-7.55473 -4.234872,-12.50078 0,-2.65325 0.0588,-2.85271 1.459227,-4.94987 2.471716,-3.70142 6.231975,-5.6563 10.880033,-5.6563 3.601777,0 5.882282,0.81868 7.805872,2.80221 1.93579,1.99611 3.62,5.33097 3.41111,6.75423 -0.11973,0.81583 0.0262,1.06517 0.8141,1.39155 0.52798,0.2187 1.31247,0.77286 1.74331,1.23146 0.63584,0.67682 0.7333,1.05344 0.51762,2.00011 -0.14614,0.64145 -0.2439,3.08551 -0.21724,5.43124 0.056,4.92895 -0.084,5.19788 -2.89537,5.56257 -2.14826,0.27866 -2.35199,0.41229 -2.35199,1.54259 0,1.23372 0.94748,2.21182 2.14257,2.21182 0.73997,0 1.16528,-0.30807 1.76504,-1.2785 0.98076,-1.5869 4.24641,-3.7342 7.14703,-4.69947 1.8052,-0.60073 2.31083,-0.94831 2.85826,-1.96483 0.93325,-1.73294 3.97645,-4.5147 6.1364,-5.60923 1.0026,-0.50806 1.82292,-0.99215 1.82292,-1.07575 0,-0.0836 -0.48776,-1.5 -1.08392,-3.14755 -0.7857,-2.17139 -1.50509,-3.44782 -2.61479,-4.63945 -1.7565,-1.88619 -2.16991,-1.83983 -3.6992,0.41483 -1.17345,1.73003 -3.36543,2.94669 -5.7528,3.19309 -1.65462,0.17077 -1.9919,0.0867 -2.97717,-0.74237 -1.47583,-1.24184 -1.9658,-2.88848 -1.80528,-6.0671 0.12189,-2.41378 0.21792,-2.69626 1.1836,-3.48179 0.57802,-0.47018 2.21861,-1.4534 3.64575,-2.18492 2.0581,-1.05493 3.07966,-1.35654 4.93889,-1.45818 2.01962,-0.11041 2.49973,-0.0141 3.46856,0.69612 3.79626,2.78276 5.86071,4.10002 8.88159,5.66705 4.03837,2.09483 5.94403,3.45255 8.39362,5.98015 4.43946,4.58086 4.81371,7.32582 1.51518,11.11349 -0.53766,0.6174 -1.54757,2.20725 -2.24423,3.53301 -2.58445,4.91821 -6.59936,8.86668 -11.9512,11.75343 -2.65393,1.43151 -2.69012,1.46968 -2.44275,2.5762 0.1381,0.61774 0.24307,2.63129 0.23326,4.47455 -0.0199,3.75045 -0.74909,7.22145 -2.37142,11.28889 -1.03366,2.59155 -1.05672,2.78696 -1.12402,9.525 -0.0378,3.78354 -0.20121,7.66285 -0.36316,8.62069 l -0.29446,1.74152 2.08545,-1.16564 c 12.57517,-7.02883 21.75095,-19.68748 24.9017,-34.35372 1.11722,-5.20045 1.12103,-14.75991 0.008,-19.88848 -3.02154,-13.92169 -10.78944,-25.29608 -22.47142,-32.904447 -7.69143,-5.009364 -16.19378,-7.651316 -25.752778,-8.002214 -14.565027,-0.534661 -27.801255,4.76067 -38.159904,15.266381 -6.901056,6.99904 -11.528861,15.82919 -13.754422,26.24435 -0.899945,4.21156 -0.899945,14.46878 0,18.68034 3.54786,16.60323 13.483955,29.59087 27.925437,36.50181 5.47146,2.61835 14.851186,5.23422 15.400884,4.29509 0.127289,-0.21747 0.405102,-1.33737 0.617361,-2.48867 z m -40.141333,-47.0404 c -0.483424,-0.90329 0.108638,-7.41705 1.03554,-11.39285 3.884908,-16.66372 17.195306,-30.185688 33.84727,-34.38528 3.419472,-0.862384 11.362052,-1.787375 11.993989,-1.396818 0.19219,0.118781 0.512682,0.520986 0.712199,0.893789 0.283506,0.529736 0.206848,0.833735 -0.35088,1.391463 -0.578224,0.578225 -1.174835,0.713641 -3.144114,0.713641 -9.333188,0 -20.879967,5.089755 -28.434928,12.533965 -7.635907,7.52397 -12.879044,19.35832 -12.879044,29.06947 0,1.35949 -0.178711,2.53139 -0.423333,2.77601 -0.628598,0.6286 -1.973554,0.51252 -2.356699,-0.20339 z"
         id="path836"
         inkscape:connector-curvature="0" />
      <path
         style="fill:#ffff00;fill-opacity:1;stroke:#ffff00;stroke-width:0.35277778;stroke-opacity:1"
         d="M 84.4505,192.26331 C 73.701758,189.9779 64.52774,184.86134 56.714988,176.7946 49.487191,169.33182 45.232874,161.4877 42.820982,151.17679 c -0.911628,-3.89724 -0.991301,-4.8075 -1.003534,-11.46528 -0.01158,-6.30172 0.09155,-7.70005 0.801759,-10.87119 2.522138,-11.26154 6.905292,-19.30166 14.858005,-27.25437 7.807859,-7.807859 15.544866,-12.095057 26.483893,-14.675144 5.501492,-1.297585 14.12433,-1.525301 19.961265,-0.527146 16.22236,2.774136 29.71915,12.06246 38.07483,26.20265 12.34535,20.89182 8.54621,48.36024 -9.05245,65.45062 -4.51474,4.38434 -10.91501,8.7686 -15.4082,10.55478 -1.41253,0.56153 -1.56881,0.56373 -2.10286,0.0297 -0.53404,-0.53404 -0.52977,-0.84576 0.0576,-4.1941 0.77475,-4.41698 1.09311,-11.31209 0.65942,-14.28218 -0.29407,-2.01394 -0.23909,-2.38424 0.65553,-4.41483 1.94505,-4.41487 2.86729,-8.26826 2.89209,-12.08406 0.0164,-2.52588 -0.14828,-3.97332 -0.5799,-5.0966 -0.57256,-1.49009 -0.57138,-1.59791 0.0234,-2.14848 0.34443,-0.31882 1.45842,-0.91321 2.47553,-1.32089 5.21755,-2.09126 10.9713,-7.58534 13.19623,-12.60069 0.25823,-0.58209 1.14582,-1.89795 1.97241,-2.92415 1.93681,-2.40449 1.93102,-3.23274 -0.0402,-5.74363 -1.99957,-2.54706 -4.97841,-4.76174 -9.71475,-7.22261 -2.09794,-1.09003 -4.98724,-2.86553 -6.42068,-3.94556 -3.42247,-2.57868 -4.78552,-2.53274 -9.21648,0.31059 -1.65693,1.06327 -1.68003,1.10372 -1.68003,2.94251 0,1.26722 0.20266,2.1147 0.63269,2.64576 0.56782,0.70122 0.77105,0.74313 1.98201,0.40878 1.67081,-0.46134 2.67697,-1.33738 2.67697,-2.3308 0,-0.902 0.62422,-1.60338 1.42699,-1.60338 0.31918,0 0.86766,-0.3175 1.21884,-0.70555 0.88144,-0.97398 1.9417,-0.88339 3.58387,0.30619 2.3207,1.6811 3.92945,3.87063 5.06875,6.8986 1.21066,3.21764 1.56079,3.99716 2.19094,4.87785 0.66755,0.93298 0.0205,1.63766 -2.38907,2.6017 -3.08061,1.23253 -5.93984,3.60622 -6.92157,5.74617 -0.79997,1.74378 -0.83439,1.76852 -3.70672,2.66406 -3.32145,1.03558 -5.61988,2.61057 -6.64564,4.5539 -0.92391,1.75035 -1.62255,2.09477 -3.67624,1.81231 -3.50128,-0.48154 -5.07544,-2.32716 -4.89576,-5.74002 0.0956,-1.81532 0.21237,-2.07273 1.26008,-2.77698 0.63511,-0.42692 1.75643,-0.87786 2.49184,-1.00211 l 1.33709,-0.2259 -0.29086,-1.83219 c -0.15998,-1.0077 -0.28629,-2.07032 -0.28071,-2.36136 0.006,-0.29104 0.0145,-1.1565 0.0198,-1.92323 0.005,-0.76674 0.17297,-1.59094 0.37267,-1.83157 0.26988,-0.32518 -0.003,-0.62419 -1.06239,-1.16472 -1.78964,-0.91301 -2.32767,-1.83765 -1.85622,-3.19005 0.70522,-2.023 -2.255837,-5.96397 -5.000268,-6.65503 -4.809483,-1.21104 -9.339718,0.43868 -11.768067,4.28544 -0.820568,1.29986 -0.883952,1.67093 -0.730314,4.27558 0.215982,3.6615 0.693375,4.93098 3.462528,9.20749 2.253076,3.47951 2.272323,3.5305 2.259408,5.98539 -0.01623,3.08252 -0.597464,4.81931 -2.21035,6.60458 -1.678651,1.85807 -3.292496,2.60809 -6.164365,2.86482 -2.459613,0.21988 -4.795386,1.06193 -6.958094,2.5084 -0.857777,0.57371 -1.988611,0.89648 -3.704166,1.05728 -2.907927,0.27257 -5.029772,1.19839 -6.117086,2.66906 -1.415267,1.91425 -2.882527,1.20301 -2.872622,-1.39247 0.01538,-4.0292 1.779285,-8.91443 4.088106,-11.32221 1.172645,-1.2229 1.254785,-1.24888 3.734944,-1.18119 2.258063,0.0616 2.606362,0.1659 3.178718,0.95161 0.437692,0.60086 0.866471,0.82392 1.343836,0.69908 0.385559,-0.10083 0.70103,-0.32356 0.70103,-0.49496 0,-0.1714 0.230932,-0.31163 0.513182,-0.31163 0.861742,0 1.055191,-2.2287 0.335115,-3.86079 l -0.633139,-1.43505 -3.89994,0.22568 c -2.581592,0.14938 -4.233042,0.41735 -4.885325,0.7927 -1.141153,0.65667 -8.885583,11.37668 -10.892551,15.0777 -1.500302,2.76668 -2.945454,7.82493 -2.613489,9.14759 0.116741,0.46513 0.532488,1.01707 0.923883,1.22654 1.029888,0.55118 8.418474,1.4034 12.167188,1.4034 3.897972,0 6.032626,-0.58883 8.934915,-2.46467 2.780598,-1.79719 3.458859,-1.81246 4.131275,-0.093 1.053412,2.69376 1.77898,3.83552 3.556716,5.59688 1.184511,1.17361 2.710448,3.39378 4.36439,6.35 1.398701,2.50001 3.167027,5.43584 3.929613,6.52406 l 1.386519,1.97859 -0.36878,2.9603 c -0.202829,1.62817 -0.646645,4.07155 -0.986261,5.42975 l -0.617477,2.46944 -1.5875,0.0711 c -0.873125,0.0391 -3.034147,-0.23645 -4.802272,-0.61239 z m 4.762235,-4.9557 c 0.622427,-3.6792 0.514054,-4.78304 -0.63331,-6.45068 -0.564371,-0.82028 -2.087178,-3.38888 -3.384017,-5.70801 -1.327902,-2.37466 -3.159256,-5.06414 -4.192397,-6.15686 -1.008977,-1.06715 -2.212485,-2.57527 -2.674465,-3.35139 -0.46198,-0.77611 -0.876388,-1.46187 -0.920905,-1.52391 -0.04452,-0.062 -0.763376,0.23535 -1.597464,0.66087 -4.245161,2.16572 -8.06502,2.57025 -16.265097,1.72251 -4.605976,-0.47617 -6.715603,-1.14753 -7.852831,-2.49905 -1.304534,-1.55035 -1.437431,-2.60228 -0.751083,-5.94514 0.907629,-4.42061 2.832479,-8.12976 7.93592,-15.2924 5.014719,-7.03812 5.600301,-7.69831 7.551333,-8.51351 1.677446,-0.70088 9.184513,-1.07037 10.519739,-0.51778 2.037486,0.84324 3.469749,5.88201 2.441046,8.58771 -0.467907,1.23069 -2.870177,2.73391 -4.6983,2.93997 -1.270913,0.14325 -1.702322,0.0198 -2.615021,-0.74816 -0.730355,-0.61456 -1.51013,-0.91972 -2.350138,-0.91972 -1.11732,0 -1.36081,0.17694 -2.189521,1.59102 -0.861098,1.46936 -2.055839,4.7403 -1.818225,4.97791 0.05643,0.0564 0.768422,-0.12679 1.582204,-0.40716 0.813782,-0.28037 2.395084,-0.61662 3.514003,-0.74721 1.283217,-0.14977 2.815958,-0.66578 4.151066,-1.39748 2.334408,-1.27936 5.622015,-2.25319 7.606672,-2.25319 2.608199,0 4.736493,-2.42908 5.14416,-5.87118 0.196102,-1.65576 0.112285,-1.87389 -2.016517,-5.24833 -2.926055,-4.63818 -3.550207,-6.33747 -3.767631,-10.25757 -0.226332,-4.08066 0.161967,-5.25398 2.615924,-7.90455 2.57538,-2.78171 4.954454,-3.9071 8.761794,-4.14463 5.520429,-0.34441 8.650476,1.39168 10.969736,6.08437 0.89533,1.81159 1.2221,2.86869 1.07183,3.46743 -0.1788,0.71239 -0.0398,0.93437 0.80366,1.28376 0.56092,0.23234 1.37235,0.79766 1.80319,1.25626 0.81165,0.86397 0.81174,0.87026 0.0596,4.32051 -0.18068,0.8288 -0.20445,1.58357 -0.0528,1.67728 0.15162,0.0937 0.27824,1.3206 0.28139,2.72643 0.007,3.17298 -0.51329,4.14356 -2.22169,4.14356 -2.0175,0 -3.01419,0.55233 -3.00804,1.66696 0.007,1.35486 0.37942,1.81808 1.78308,2.22065 0.89168,0.25573 1.24703,0.23502 1.35162,-0.0788 0.078,-0.23414 0.85774,-1.19099 1.73265,-2.12634 1.5868,-1.69642 4.91741,-3.58763 7.0798,-4.02011 0.78689,-0.15738 1.31942,-0.62029 1.94855,-1.6938 1.11516,-1.90289 3.5128,-4.10317 6.00207,-5.50803 1.08298,-0.61119 1.96905,-1.25998 1.96905,-1.44174 0,-0.18177 -0.49376,-1.61085 -1.09725,-3.17575 -1.06799,-2.76939 -3.46721,-5.95142 -4.48731,-5.95142 -0.22761,0 -0.97643,0.78309 -1.66405,1.7402 -1.9949,2.77677 -6.42097,4.38422 -8.43615,3.06382 -1.43508,-0.9403 -2.30758,-3.05655 -2.30209,-5.58371 0.007,-3.29005 0.18802,-3.64216 2.67908,-5.2154 4.70019,-2.96844 8.43918,-3.64483 10.75768,-1.94607 3.04777,2.2331 7.04614,4.78156 9.1362,5.82321 4.38424,2.18502 8.49353,5.63373 10.71293,8.99082 1.61869,2.44844 1.13577,5.24187 -1.37331,7.9438 -0.45044,0.48507 -1.38786,1.97819 -2.08315,3.31805 -2.15399,4.15086 -5.38403,7.65251 -9.66078,10.47314 -1.41938,0.93612 -3.13524,1.90256 -3.81302,2.14765 -0.99728,0.36063 -1.19128,0.58206 -1.01714,1.16103 0.11836,0.39347 0.30211,1.98541 0.40836,3.53763 0.24101,3.52119 -0.67505,8.2564 -2.46373,12.73523 l -1.25391,3.13977 0.20502,4.58611 c 0.12228,2.73531 0.0334,6.05938 -0.22033,8.23674 -0.23393,2.00784 -0.35047,3.72549 -0.25897,3.81699 0.20386,0.20387 4.17759,-2.18933 7.28749,-4.38892 3.63159,-2.56857 8.72581,-7.93325 11.56235,-12.1762 4.08428,-6.10934 6.23975,-11.19521 7.90858,-18.66048 1.13729,-5.0875 1.1454,-14.9935 0.0164,-20.10788 -4.49564,-20.36626 -19.53991,-35.502333 -39.60823,-39.849945 -5.34977,-1.158978 -15.440073,-1.157476 -20.798503,0.0031 -19.874682,4.304615 -35.269513,19.700505 -39.555916,39.558635 -1.067472,4.94541 -1.167455,15.08215 -0.196159,19.8874 3.707011,18.3395 16.530065,33.02641 33.931143,38.86309 3.193496,1.07117 9.057224,2.30015 9.396769,1.96948 0.123504,-0.12027 0.401316,-1.26356 0.617361,-2.54063 z M 49.091362,140.15248 c -0.49774,-0.95328 0.190214,-8.04137 1.146283,-11.81031 4.925334,-19.41624 21.164548,-33.314354 41.125539,-35.196737 4.077497,-0.384521 4.766031,-0.288881 5.315807,0.738384 0.266104,0.497224 0.191865,0.815165 -0.306786,1.313814 -0.529597,0.529598 -1.408056,0.698962 -4.506003,0.868747 -14.818614,0.812142 -29.36735,10.818112 -35.88514,24.680202 -2.434554,5.17783 -4.122735,11.88564 -4.122735,16.38126 0,1.2525 -0.164335,2.58434 -0.36519,2.95964 -0.457399,0.85465 -1.968121,0.89554 -2.401775,0.065 z"
         id="path834"
         inkscape:connector-curvature="0" />
      <path
         style="fill:#ffff00;fill-opacity:1;stroke:#ffff00;stroke-width:0.35277778;stroke-opacity:1"
         d="m 85.724994,192.43627 c -11.26709,-2.0499 -21.011747,-7.32587 -29.164457,-15.79031 -7.378378,-7.66049 -12.115904,-16.92941 -14.09966,-27.58584 -0.91109,-4.89423 -0.909691,-14.1692 0.0029,-19.05 2.065893,-11.04931 7.019813,-20.42626 15.015591,-28.42204 7.972208,-7.972209 17.405302,-12.955788 28.422041,-15.015592 5.23566,-0.978913 14.898301,-0.891081 19.931951,0.181179 11.10721,2.36604 19.76439,7.031741 27.51975,14.831513 9.33763,9.39109 14.38336,20.21235 15.58569,33.42565 0.45843,5.03796 0.10555,10.85666 -0.96431,15.90075 -3.3107,15.60903 -14.44562,29.86677 -28.69257,36.73949 -2.3912,1.15351 -3.08969,1.35402 -3.65776,1.05 -0.77276,-0.41357 -0.79169,0.0474 0.27327,-6.65623 0.44318,-2.7897 0.54214,-5.01055 0.40084,-8.99583 l -0.18762,-5.29167 1.35924,-3.52778 c 2.43298,-6.31455 3.00374,-10.9511 1.87125,-15.20117 -0.706,-2.64954 -0.60716,-2.827 2.13543,-3.83406 4.54786,-1.66993 10.21343,-6.79935 12.72923,-11.52462 0.76172,-1.43069 1.90326,-3.21417 2.53676,-3.96328 0.6335,-0.74912 1.31213,-1.82189 1.50807,-2.38395 0.32227,-0.92448 0.19811,-1.22998 -1.30204,-3.20367 -2.03177,-2.67313 -5.32109,-5.20613 -9.66277,-7.44101 -1.80642,-0.92986 -4.71316,-2.72038 -6.45941,-3.97894 -2.84873,-2.05314 -3.30188,-2.26652 -4.40972,-2.07645 -1.24814,0.21413 -5.41467,2.30009 -6.30251,3.15533 -0.60149,0.5794 -0.63658,3.66638 -0.054,4.75485 0.36221,0.67682 0.6235,0.76726 1.70812,0.59125 1.64438,-0.26685 3.02759,-1.30038 3.18293,-2.37828 0.15767,-1.09412 0.69131,-1.7285 1.45402,-1.7285 0.33423,0 0.89502,-0.3175 1.2462,-0.70555 0.91301,-1.00886 2.01612,-0.87495 3.76202,0.45669 2.2081,1.68417 3.85805,4.05283 5.01109,7.19389 0.55651,1.516 1.31953,3.26592 1.69562,3.88871 0.53914,0.89281 0.6023,1.28458 0.29859,1.85208 -0.21186,0.39585 -0.57805,0.71987 -0.81376,0.72002 -0.86285,7e-4 -4.70148,2.0669 -6.09811,3.28262 -1.10727,0.96385 -2.61162,3.20676 -3.18469,4.74819 -0.0191,0.0515 -0.93679,0.32853 -2.03923,0.61568 -3.87844,1.01021 -6.38711,2.71163 -7.66684,5.19976 -0.66312,1.28929 -0.73043,1.32291 -2.6484,1.32291 -3.7558,0 -5.77499,-1.79114 -5.77747,-5.12497 -0.002,-2.68873 0.73153,-3.40965 4.25556,-4.18245 0.79998,-0.17543 0.89768,-0.35959 0.83847,-1.58052 -0.0369,-0.76007 -0.15381,-1.52236 -0.25988,-1.69398 -0.32563,-0.52689 -0.18876,-4.50168 0.17039,-4.94825 0.2405,-0.29904 -0.0695,-0.62841 -1.07349,-1.14061 -1.56324,-0.79751 -1.98796,-1.64343 -1.67166,-3.32948 0.16841,-0.89769 -0.0417,-1.52916 -1.03981,-3.12482 -1.675543,-2.6787 -3.102854,-3.51818 -6.334369,-3.72556 -4.111777,-0.26388 -7.18735,1.11845 -9.398995,4.22442 -1.066168,1.49729 -1.348063,3.18603 -0.973423,5.83146 0.406276,2.86883 1.146072,4.56534 3.698039,8.4804 1.86147,2.85575 2.001456,3.21686 2.02022,5.21129 0.02766,2.93951 -0.665624,5.15351 -2.160647,6.90011 -1.490444,1.74125 -3.557475,2.77058 -5.585259,2.78133 -2.097849,0.0111 -5.742746,1.22685 -7.370663,2.45844 -1.070948,0.81021 -1.774565,1.05975 -3.009413,1.06727 -2.72087,0.0166 -5.29132,0.98082 -6.712618,2.51811 -2.200072,2.37961 -3.371131,1.48201 -2.971794,-2.27784 0.45144,-4.25041 1.722071,-7.61228 3.750065,-9.92204 1.07767,-1.22739 1.131166,-1.24453 3.885953,-1.24453 2.637114,0 2.815701,0.0493 3.195081,0.88195 0.493994,1.0842 1.066696,1.11024 2.41954,0.11004 0.792835,-0.58617 1.044049,-1.05418 1.044049,-1.94506 0,-0.64524 -0.147162,-1.44883 -0.327025,-1.78574 -0.179865,-0.33692 -0.413008,-0.89039 -0.518096,-1.22994 -0.164984,-0.53307 -0.664,-0.61736 -3.655169,-0.61736 -5.313095,0 -5.635104,0.22768 -10.976687,7.76111 -4.701065,6.63009 -7.17153,11.27215 -7.778972,14.61688 -0.535396,2.94801 -0.492012,3.28524 0.506842,3.93971 1.105651,0.72445 7.288415,1.57214 11.989384,1.64381 4.104646,0.0626 5.905597,-0.42996 9.500765,-2.59831 1.294158,-0.78054 2.615272,-1.36866 2.935809,-1.30693 0.34992,0.0674 0.930723,1.02787 1.453505,2.40368 0.648624,1.70698 1.373469,2.78633 2.841857,4.23172 1.399202,1.37728 2.772072,3.37334 4.731428,6.87916 1.518151,2.71639 3.223397,5.52489 3.789429,6.24112 0.871407,1.10263 1.028443,1.61632 1.024516,3.35139 -0.0054,2.40115 -1.175237,8.40102 -1.780049,9.12977 -0.501089,0.60378 -1.418019,0.59622 -4.918093,-0.0406 z m 3.231113,-3.51226 c 0.155787,-0.58209 0.441611,-2.19628 0.635166,-3.5871 l 0.351924,-2.52877 -1.370115,-2.05734 c -0.753562,-1.13154 -2.328933,-3.8036 -3.500822,-5.9379 -1.355164,-2.4681 -2.83088,-4.58679 -4.054341,-5.82084 -1.058002,-1.06715 -2.282698,-2.68139 -2.721547,-3.5872 l -0.797905,-1.64692 -1.795765,1.01214 c -3.830037,2.15872 -8.11213,2.56369 -16.604302,1.57031 -4.903984,-0.57365 -6.542447,-1.16127 -7.749241,-2.7792 -1.410974,-1.89167 -0.612849,-6.87452 1.927158,-12.03163 1.25824,-2.55466 8.853025,-13.67409 10.660093,-15.60729 1.572427,-1.68219 3.296913,-2.15672 8.265275,-2.27438 4.502792,-0.10663 4.672605,-0.0839 5.55625,0.74525 0.501325,0.47039 0.911503,1.07128 0.911503,1.33533 0,0.26405 0.260142,0.87711 0.57809,1.36236 0.444306,0.6781 0.528627,1.35552 0.364356,2.92718 -0.284575,2.72268 -0.425344,3.01565 -1.938919,4.03524 -1.761145,1.18637 -3.636611,1.47896 -4.990921,0.77862 -0.587488,-0.30381 -1.068161,-0.70704 -1.068161,-0.89609 0,-0.18904 -0.712384,-0.34372 -1.583075,-0.34372 -1.446313,0 -1.654912,0.11429 -2.41463,1.32292 -0.848566,1.34998 -2.185187,4.95901 -1.930804,5.21339 0.07733,0.0773 0.847565,-0.0718 1.711637,-0.33146 0.864071,-0.25963 2.563511,-0.58693 3.776533,-0.72733 1.213022,-0.1404 2.303709,-0.41419 2.42375,-0.60842 0.4621,-0.74769 4.550732,-2.36651 6.959202,-2.75537 1.387465,-0.22402 2.905086,-0.4831 3.372485,-0.57575 1.247006,-0.24718 3.077122,-2.24672 3.521573,-3.84758 0.744558,-2.68183 0.529233,-3.53186 -1.858261,-7.33575 -2.722721,-4.33798 -3.389478,-6.18993 -3.646385,-10.12798 -0.238044,-3.64886 0.376082,-5.3644 2.877725,-8.03886 4.340997,-4.64087 12.979192,-5.2841 16.997607,-1.26568 1.88132,1.88132 3.40274,4.8319 3.40274,6.59912 0,1.14971 0.1586,1.42398 1.09842,1.89961 0.60414,0.30574 1.37624,0.79948 1.71579,1.0972 0.65824,0.57714 0.83051,2.18691 0.29352,2.74264 -0.38444,0.39784 -0.61427,2.66562 -0.32051,3.16244 0.11308,0.19123 0.20986,1.51371 0.21508,2.93884 0.0115,3.13753 -0.54509,3.93525 -2.74573,3.93525 -2.80397,0 -3.67089,2.70901 -1.19762,3.7424 1.58372,0.66172 1.59217,0.65883 2.68494,-0.92144 1.32913,-1.92207 3.87491,-3.67411 6.74976,-4.64527 2.21565,-0.74848 2.53615,-0.98412 3.60432,-2.65001 1.30341,-2.03276 3.80436,-4.17169 6.07133,-5.19245 0.81952,-0.36902 1.49005,-0.86011 1.49005,-1.0913 0,-0.65922 -1.2496,-4.12429 -2.04225,-5.66307 -0.95271,-1.84949 -3.04408,-3.84148 -3.7491,-3.57094 -0.3004,0.11528 -0.98555,0.83232 -1.52256,1.59343 -1.57769,2.2361 -3.00175,3.01463 -5.80394,3.17296 -1.95144,0.11027 -2.56989,0.0158 -3.11271,-0.47544 -1.18472,-1.07215 -1.85975,-3.44333 -1.699,-5.96798 0.18301,-2.87413 0.71853,-3.49624 4.78407,-5.55766 2.65762,-1.34754 3.28188,-1.52462 5.37461,-1.52462 2.06842,0 2.51972,0.12437 3.57,0.98386 2.03304,1.66373 5.63024,3.93668 9.1017,5.75107 3.97032,2.07513 7.37362,4.84339 9.65126,7.8504 1.35768,1.79245 1.6757,2.48287 1.6757,3.63795 0,1.69372 -0.68682,3.25568 -2.24742,5.11113 -0.62915,0.74802 -1.58867,2.23316 -2.13226,3.30031 -2.59838,5.10102 -7.34988,9.72338 -12.55659,12.21533 l -2.11833,1.01384 0.26688,1.5875 c 0.72154,4.29198 -0.0955,10.14125 -2.1189,15.16944 -1.04386,2.59401 -1.06629,2.78058 -1.14544,9.525 -0.0444,3.78354 -0.24422,7.75229 -0.44404,8.81944 -0.19982,1.06716 -0.32735,1.97901 -0.28341,2.02636 0.27648,0.29786 6.85984,-4.08136 9.67544,-6.43608 9.1423,-7.64578 14.93412,-17.36117 17.56074,-29.45694 0.91967,-4.23516 0.93047,-15.12911 0.0192,-19.40278 -2.22319,-10.42674 -6.81104,-18.9455 -14.16239,-26.29685 -7.22468,-7.224681 -15.87118,-11.936313 -25.95355,-14.142556 -4.27437,-0.935326 -15.81501,-0.935326 -20.089386,0 -3.95103,0.864576 -9.335978,2.759922 -12.824126,4.513728 -13.674656,6.875478 -23.537691,19.566538 -27.097662,34.867348 -1.03703,4.45717 -1.280766,13.46857 -0.500941,18.52083 0.704336,4.56319 2.717208,10.87688 4.792577,15.03267 5.72222,11.45836 16.269265,20.87065 28.212361,25.17699 2.845318,1.02594 9.379292,2.65477 10.205184,2.54401 0.277089,-0.0372 0.631257,-0.54381 0.78704,-1.12589 z M 49.150251,140.20568 c -0.329166,-0.85779 0.157369,-7.40895 0.757195,-10.19556 1.383596,-6.42778 4.521055,-13.30643 8.467959,-18.56537 8.131823,-10.83503 21.571548,-17.973461 34.052367,-18.086707 l 4.056944,-0.03681 v 1.057958 1.057958 l -4.351203,0.430814 c -9.797228,0.970026 -18.011602,4.372777 -25.073641,10.386607 -8.814033,7.50577 -14.072062,17.76498 -15.209138,29.67532 -0.207828,2.1769 -0.444907,4.15644 -0.526843,4.39898 -0.216138,0.63977 -1.917873,0.54333 -2.17364,-0.12319 z"
         id="path832"
         inkscape:connector-curvature="0" />
      <path
         style="fill:#ffff00;fill-opacity:1;stroke:#ffff00;stroke-width:0.35277778;stroke-opacity:1"
         d="M 84.490272,192.11333 C 52.80187,185.40491 34.228219,152.9989 44.497974,122.33755 c 2.595768,-7.74992 6.930938,-14.66416 12.998808,-20.73203 7.75226,-7.75226 16.52328,-12.476949 27.611193,-14.873332 5.172326,-1.117873 15.382835,-1.117883 20.601085,-2.1e-5 7.47754,1.601845 15.1005,4.907771 21.0407,9.124929 3.70362,2.629325 9.72532,8.651034 12.35465,12.354644 4.36131,6.14326 7.78817,14.26968 9.2666,21.97477 0.96457,5.02702 0.88437,14.44798 -0.16519,19.40278 -2.39598,11.31111 -7.06958,20.07506 -14.85989,27.86538 -4.34361,4.34361 -8.19662,7.17882 -13.28812,9.77799 -3.08388,1.57429 -3.79063,1.81256 -4.40348,1.48457 -0.60857,-0.32569 -0.69269,-0.60508 -0.50567,-1.67945 1.17154,-6.7302 1.32821,-8.60257 1.15573,-13.81238 l -0.18103,-5.46806 1.18697,-2.99861 c 0.65283,-1.64924 1.44064,-3.95111 1.75068,-5.11528 0.781,-2.93257 1.04727,-7.75059 0.53616,-9.70139 -0.95032,-3.62714 -1.20118,-3.19152 3.05037,-5.29689 3.33918,-1.65357 4.22673,-2.29797 7.00949,-5.08918 2.34596,-2.35307 3.54426,-3.89362 4.54393,-5.8417 0.74675,-1.45521 1.80523,-3.12209 2.35217,-3.70417 0.54694,-0.58208 1.2362,-1.63799 1.53169,-2.34646 0.51556,-1.23615 0.50063,-1.34293 -0.36997,-2.64584 -2.08026,-3.11324 -5.16698,-5.65078 -9.84631,-8.09445 -3.9904,-2.0839 -6.67555,-3.78621 -8.36609,-5.30387 -0.85573,-0.76822 -1.68341,-1.18855 -2.3404,-1.18855 -1.1021,0 -6.38327,2.49333 -7.0933,3.34887 -0.54936,0.66195 -0.56899,3.70576 -0.0304,4.71216 0.26785,0.50049 0.74386,0.75842 1.39964,0.75842 1.3678,0 3.36274,-1.40916 3.51315,-2.48157 0.15267,-1.08859 0.68183,-1.75177 1.39775,-1.75177 0.30329,0 0.91006,-0.33691 1.34839,-0.7487 0.9981,-0.93766 1.98954,-0.73107 4.07147,0.84839 2.00513,1.5212 3.49832,3.79385 4.72418,7.19024 0.54874,1.52033 1.2911,3.16978 1.64969,3.66545 0.3586,0.49566 0.56383,1.13096 0.45607,1.41178 -0.10776,0.28081 -1.38382,1.04512 -2.83569,1.69846 -3.20921,1.44414 -5.56414,3.44737 -6.70933,5.70729 -0.78684,1.55275 -1.02392,1.7403 -2.8831,2.28078 -3.99132,1.16031 -6.2918,2.74331 -7.55453,5.1984 -0.6667,1.29624 -0.72128,1.32291 -2.70722,1.32291 -3.67415,0 -5.71997,-1.92822 -5.71997,-5.3912 0,-1.37913 0.17371,-1.85903 0.92491,-2.55521 0.5087,-0.47145 1.50088,-0.95249 2.20486,-1.06898 0.70397,-0.11649 1.44986,-0.26288 1.65753,-0.3253 0.3791,-0.11397 0.41316,-2.65068 0.0436,-3.2486 -0.27401,-0.44335 -0.10183,-4.42774 0.21329,-4.93596 0.16266,-0.26233 -0.26862,-0.71132 -1.16971,-1.21776 -1.50616,-0.84651 -1.9842,-1.82647 -1.61282,-3.30619 0.14063,-0.56028 -0.0325,-1.38037 -0.47406,-2.24594 -1.86576,-3.65721 -4.010756,-4.82224 -8.396288,-4.56036 -3.28295,0.19604 -4.984923,0.97151 -7.050546,3.21245 -1.912662,2.07499 -2.293324,3.51507 -1.822993,6.89661 0.408499,2.937 1.284308,4.90038 3.947326,8.84903 1.723947,2.55623 1.770708,2.69342 1.754886,5.14865 -0.01154,1.79153 -0.237501,3.0226 -0.779805,4.24857 -1.481692,3.34961 -3.425744,4.67939 -7.508783,5.1362 -2.97995,0.33339 -5.304766,1.1647 -7.135603,2.55156 -0.799211,0.6054 -1.731934,0.87031 -3.608932,1.02501 -2.97205,0.24494 -4.469982,0.9011 -5.96977,2.61502 -0.84981,0.97115 -1.261203,1.19511 -1.851264,1.00783 -1.101565,-0.34962 -1.259765,-1.56882 -0.662895,-5.1087 0.603342,-3.57827 1.750206,-6.34671 3.414404,-8.24213 1.141942,-1.3006 1.160696,-1.30682 3.940643,-1.30682 2.637114,0 2.815701,0.0493 3.195081,0.88195 0.450744,0.98927 1.390218,1.15075 2.052477,0.35277 0.241544,-0.29104 0.657857,-0.52916 0.925141,-0.52916 0.567829,0 0.681596,-2.46535 0.158946,-3.44437 -0.179865,-0.33692 -0.419564,-0.90747 -0.532664,-1.2679 -0.187581,-0.59779 -0.553802,-0.64422 -4.170891,-0.52879 -3.422548,0.10922 -4.117181,0.23485 -5.075305,0.91796 -1.08979,0.77697 -8.580959,10.99289 -10.481231,14.29355 -1.584987,2.75302 -2.701663,6.13723 -2.790341,8.45642 -0.0785,2.05304 -0.03384,2.18012 0.976068,2.77711 1.455221,0.86024 11.826294,1.84 14.845111,1.40243 2.035068,-0.29498 5.053838,-1.59698 7.379889,-3.18294 1.299517,-0.88604 2.247222,-0.92692 2.524322,-0.10889 0.861544,2.5434 2.168783,4.71876 3.856419,6.41743 1.252908,1.26109 2.709139,3.34613 4.079892,5.8416 1.172369,2.1343 2.830516,4.93378 3.684778,6.22105 1.355171,2.04209 1.552611,2.58183 1.548564,4.23333 -0.0056,2.27625 -1.194015,8.26732 -1.780049,8.97345 -0.55638,0.6704 -1.544797,0.61201 -6.152815,-0.36351 z m 4.700799,-4.15946 c 0.907598,-5.50512 0.949011,-4.97347 -0.561686,-7.21088 -0.761111,-1.12725 -2.385095,-3.84325 -3.608849,-6.03557 -1.386103,-2.48315 -2.969599,-4.7474 -4.199859,-6.0054 -1.086167,-1.11065 -2.27071,-2.67693 -2.632322,-3.48063 l -0.657468,-1.46126 -2.341141,1.15646 c -3.03771,1.50055 -4.866904,1.91878 -8.414001,1.92378 -4.124441,0.006 -11.299639,-0.85073 -13.071939,-1.56047 -1.746162,-0.69928 -2.796562,-1.88378 -3.098702,-3.49433 -0.299441,-1.59616 0.985596,-6.7135 2.472886,-9.84766 1.454926,-3.06597 10.390315,-15.78973 11.76607,-16.75458 1.483904,-1.0407 3.110574,-1.39283 7.330698,-1.5869 4.717414,-0.21694 5.248609,-0.0104 6.613277,2.57163 0.90472,1.71177 0.984561,2.12853 0.777748,4.05973 -0.275212,2.56989 -0.34943,2.70717 -2.109297,3.90144 -1.835125,1.24535 -4.051506,1.35391 -5.220495,0.25571 -0.595024,-0.559 -1.275764,-0.79288 -2.307821,-0.79288 -1.29539,0 -1.568062,0.15225 -2.369399,1.32292 -0.907018,1.32507 -2.161873,4.92491 -1.831809,5.25498 0.09657,0.0966 0.865316,-0.0545 1.708332,-0.33563 0.843015,-0.28116 2.471043,-0.62468 3.617838,-0.76336 1.25515,-0.15179 2.589294,-0.58583 3.351838,-1.09045 1.775006,-1.17465 4.991543,-2.2182 7.688942,-2.49456 1.71897,-0.17611 2.557911,-0.45991 3.363609,-1.13786 1.406963,-1.18389 2.366751,-3.35738 2.376393,-5.38146 0.0065,-1.36026 -0.273248,-2.0539 -1.707166,-4.23333 -3.191873,-4.85138 -4.266727,-7.90484 -4.277095,-12.15045 -0.01521,-6.23505 6.503885,-11.28917 13.695263,-10.61762 3.228143,0.30144 5.687974,1.57526 7.310654,3.78579 1.52762,2.08104 2.66115,4.87235 2.39379,5.89472 -0.15217,0.58191 0.1,0.87833 1.24308,1.46151 2.01746,1.02923 2.83916,2.90401 1.6906,3.85723 -0.47175,0.39151 -0.58332,2.3779 -0.17107,3.04563 0.36309,0.5881 0.07,5.82997 -0.34942,6.24939 -0.21531,0.21531 -1.29445,0.51402 -2.39809,0.66378 -2.19853,0.29835 -2.71611,0.7449 -2.41395,2.08266 0.37113,1.64307 2.82145,2.7533 3.49394,1.5831 1.4245,-2.47878 5.75309,-5.43746 8.78806,-6.00682 0.89274,-0.16748 1.31606,-0.55276 1.9777,-1.79995 1.03647,-1.95376 3.18578,-3.88464 5.98458,-5.37639 l 2.1233,-1.13171 -0.83282,-2.21258 c -1.23873,-3.29099 -2.12411,-4.85485 -3.49266,-6.1691 -1.42272,-1.36626 -2.41572,-1.29317 -3.21158,0.23637 -1.15692,2.22346 -3.65568,3.59097 -6.56155,3.59097 -1.47621,0 -1.94171,-0.16146 -2.64108,-0.9161 -1.25056,-1.34938 -1.70156,-3.09023 -1.48843,-5.74533 0.16857,-2.10007 0.30138,-2.4225 1.36712,-3.31909 0.64922,-0.54618 2.36205,-1.57957 3.80628,-2.29642 2.24309,-1.11336 2.9724,-1.30348 5.00298,-1.30418 2.07371,-7.1e-4 2.504,0.11669 3.37135,0.91987 1.51745,1.40519 5.18306,3.77098 7.99395,5.15929 4.8249,2.38306 8.12537,4.94063 10.70954,8.29895 2.54966,3.31349 2.40596,5.7395 -0.54254,9.15918 -0.54836,0.63598 -1.61894,2.3269 -2.37908,3.75759 -2.41424,4.54392 -7.2583,9.11717 -12.23225,11.54839 l -2.03073,0.9926 0.26684,1.77749 c 0.68493,4.56251 -0.007,9.29611 -2.22262,15.21251 -1.25443,3.34921 -1.26111,3.39681 -1.02729,7.31528 0.21206,3.55362 -0.18924,9.73624 -0.79254,12.2106 l -0.20923,0.85813 2.08287,-1.1694 c 8.83463,-4.9601 16.45849,-12.94385 21.0158,-22.00789 2.00334,-3.98445 4.02523,-10.35185 4.7234,-14.87508 0.78033,-5.05555 0.53597,-14.04934 -0.50445,-18.56654 -3.58732,-15.57503 -13.50815,-28.12673 -27.72689,-35.079683 -7.50063,-3.667802 -13.7087,-5.088438 -22.236097,-5.088438 -8.69853,0 -14.817139,1.431672 -22.577778,5.282893 -5.914896,2.93527 -9.800876,5.782966 -14.301812,10.480548 -7.284374,7.60263 -11.979167,17.05375 -13.625555,27.42971 -0.695269,4.38176 -0.475762,14.18128 0.407392,18.18734 2.678741,12.15101 9.729056,23.16291 19.548109,30.53223 5.514996,4.13907 13.048331,7.56403 19.789922,8.99729 4.364422,0.92788 4.106979,1.01424 4.52441,-1.51771 z M 49.287486,140.55085 c -0.439768,-0.43976 -0.271033,-5.18404 0.306808,-8.62648 2.403086,-14.31616 11.606574,-26.99161 24.39348,-33.595792 6.249416,-3.227696 14.558987,-5.34922 20.029046,-5.113634 l 2.467896,0.106288 v 1.058333 1.058333 l -4.0729,0.400964 c -6.953018,0.684503 -11.202653,1.852001 -16.5646,4.550778 -10.175132,5.12135 -18.005549,14.05238 -21.794614,24.85798 -1.329258,3.79076 -1.802654,6.08861 -2.314501,11.23451 -0.39931,4.01451 -0.43002,4.11378 -1.304087,4.21571 -0.492331,0.0574 -1.008268,-0.009 -1.146528,-0.14699 z"
         id="path830"
         inkscape:connector-curvature="0" />
      <path
         style="fill:#ffff00;fill-opacity:1;stroke:#ffff00;stroke-width:0.35277778;stroke-opacity:1"
         d="m 86.254161,192.41801 c -16.59817,-2.93842 -30.82184,-13.31146 -38.406785,-28.0093 -12.696505,-24.60284 -5.021714,-54.362 17.945674,-69.584718 21.368554,-14.163015 49.36661,-11.343942 67.5389,6.800368 14.35795,14.33583 19.34108,35.2434 13.02955,54.6677 -4.34233,13.36392 -13.92694,24.54721 -26.5837,31.01774 -2.75104,1.40641 -4.18068,1.75682 -4.57364,1.121 -0.10769,-0.17426 0.1388,-2.27769 0.54778,-4.67431 0.61807,-3.62203 0.71773,-5.36969 0.59046,-10.3547 l -0.15312,-5.99723 1.0373,-2.289 c 2.44215,-5.38908 3.35241,-12.20311 2.16452,-16.20317 -0.30433,-1.02481 -0.47883,-2.05744 -0.38777,-2.29473 0.091,-0.2373 1.05238,-0.77081 2.13627,-1.1856 5.52393,-2.11389 10.71273,-6.84125 13.42414,-12.23034 0.6088,-1.21004 1.68182,-2.87171 2.38447,-3.6926 2.28313,-2.66732 2.14986,-3.39917 -1.28182,-7.03917 -2.03679,-2.16044 -4.63948,-4.01862 -7.96084,-5.6836 -2.25485,-1.13034 -7.03436,-4.19149 -8.87549,-5.68451 -1.27927,-1.03739 -3.33966,-0.7044 -6.30328,1.01872 -2.84969,1.65689 -3.41484,2.58032 -2.96793,4.84952 0.38818,1.97104 1.0025,2.46765 2.65508,2.14632 1.65541,-0.32188 2.81764,-1.30098 2.9474,-2.48299 0.11422,-1.04059 0.69028,-1.60189 1.65327,-1.61094 0.31589,-0.003 0.80161,-0.3477 1.07939,-0.76606 0.65425,-0.98535 1.72994,-0.7343 3.87649,0.90472 2.02668,1.54748 3.48072,3.81878 4.87627,7.61705 0.60595,1.64923 1.25083,3.14942 1.43305,3.33375 0.18222,0.18432 0.33131,0.67869 0.33131,1.09859 0,0.58748 -0.38627,0.90822 -1.6757,1.39143 -3.72195,1.3948 -6.87866,4.00902 -7.95682,6.58941 -0.43731,1.04664 -0.77168,1.25489 -3.12801,1.94813 -3.43588,1.01085 -5.85784,2.68656 -6.94979,4.80844 -0.84016,1.63258 -0.85878,1.64413 -2.65053,1.64359 -4.1504,-0.001 -6.67296,-3.10997 -5.64249,-6.95359 0.23977,-0.89433 2.69216,-2.21809 4.10922,-2.21809 0.87347,0 0.92502,-0.092 0.84297,-1.50403 -0.0481,-0.82722 -0.18367,-1.66066 -0.30135,-1.85209 -0.3818,-0.62102 -0.10337,-4.30119 0.36842,-4.86967 0.39503,-0.47599 0.26829,-0.64972 -0.91405,-1.25291 -1.94802,-0.9938 -2.33143,-1.56778 -2.04984,-3.06874 0.42265,-2.25294 -2.16524,-6.06258 -4.682699,-6.89342 -1.669412,-0.55095 -5.225525,-0.53653 -6.940169,0.0281 -2.075364,0.68347 -4.139671,2.21803 -5.314386,3.95059 -0.912135,1.34529 -1.032245,1.82185 -1.007364,3.99685 0.0403,3.52283 0.86202,5.85552 3.47956,9.87778 2.234174,3.43315 2.295984,3.59046 2.304387,5.86467 0.02106,5.70042 -2.758849,8.8836 -8.300924,9.50512 -2.785985,0.31244 -6.384004,1.6877 -7.425075,2.83807 -0.4423,0.48874 -1.086825,0.66575 -2.424067,0.66575 -2.884795,0 -5.166144,0.84441 -6.668621,2.4683 -1.105045,1.19434 -1.421468,1.36042 -2.000979,1.05028 -0.569998,-0.30505 -0.688365,-0.74782 -0.688365,-2.57492 0,-3.74569 1.50967,-8.14909 3.676854,-10.72464 0.858706,-1.02051 1.003501,-1.06141 3.696494,-1.04407 2.579675,0.0166 2.832426,0.0831 3.175209,0.83544 0.427276,0.93777 1.955594,1.13105 2.279017,0.28822 0.111684,-0.29104 0.425396,-0.52916 0.697141,-0.52916 0.741502,0 1.028932,-2.39842 0.395762,-3.30239 -0.283206,-0.40434 -0.514921,-1.01733 -0.514921,-1.36222 0,-0.5612 -0.39022,-0.62706 -3.715498,-0.62706 -4.006003,0 -5.454726,0.38748 -6.754556,1.80662 -1.980817,2.16262 -9.174782,12.78886 -10.383805,15.33796 -1.519017,3.2027 -2.464505,7.55576 -1.854497,8.53818 0.674969,1.08704 2.147344,1.4942 7.430855,2.05489 7.863018,0.83443 10.891066,0.32762 15.221581,-2.54768 2.3386,-1.55275 2.761376,-1.40804 3.739449,1.27994 0.460096,1.26445 1.399209,2.64262 2.860975,4.19857 1.435171,1.52763 3.046092,3.87768 4.731456,6.90235 1.405473,2.52236 3.115412,5.36952 3.799864,6.32701 1.223261,1.71123 1.240748,1.78482 1.026485,4.31957 -0.252554,2.98768 -1.207294,7.49776 -1.722914,8.13884 -0.424822,0.52819 -0.695911,0.52054 -4.325228,-0.12197 z m 3.139066,-5.34609 c 0.716209,-3.9023 0.709115,-4.39095 -0.07868,-5.42048 -0.708318,-0.92566 -3.52353,-5.64247 -5.344883,-8.95521 -0.640062,-1.16417 -1.926265,-2.87023 -2.85823,-3.79125 -0.931965,-0.92101 -2.140483,-2.46865 -2.685599,-3.43919 -0.545112,-0.97054 -1.07049,-1.71798 -1.167504,-1.66097 -3.678648,2.16141 -8.940504,3.60532 -10.221992,2.80502 -0.461841,-0.28843 -0.7023,-0.29906 -0.790334,-0.035 -0.213802,0.6414 -11.074974,-0.63049 -12.894347,-1.50999 -2.401722,-1.16101 -3.037407,-2.91861 -2.352852,-6.50536 0.977791,-5.12318 2.261362,-7.60706 8.375643,-16.20798 6.015635,-8.46215 5.937388,-8.40828 12.464327,-8.58154 3.048376,-0.0809 4.894421,0.016 5.393711,0.28322 0.417505,0.22344 1.163115,1.28953 1.656916,2.36908 0.77397,1.69208 0.864425,2.25051 0.655757,4.04842 -0.226416,1.9508 -0.345602,2.16464 -1.844339,3.30901 -2.030657,1.55052 -4.183227,1.75644 -5.557767,0.53165 -0.388056,-0.34577 -1.350565,-0.70936 -2.138909,-0.80798 -1.310764,-0.16396 -1.501003,-0.0806 -2.224337,0.97507 -0.911444,1.33017 -2.163143,4.46248 -2.163143,5.41316 0,0.62725 0.0581,0.62749 1.852083,0.008 1.018646,-0.3519 2.666083,-0.64501 3.660971,-0.65134 1.076556,-0.007 1.969102,-0.20457 2.204623,-0.48835 0.818969,-0.9868 5.215851,-2.68452 7.987323,-3.08405 3.426304,-0.49395 4.83084,-1.28643 5.789415,-3.26658 1.094817,-2.26159 0.990532,-4.83363 -0.271287,-6.69092 -3.804888,-5.60048 -5.321254,-10.0331 -4.883432,-14.27519 0.36945,-3.57962 3.75097,-7.37418 7.825581,-8.78145 2.307379,-0.7969 6.499095,-0.79827 8.839948,-0.003 3.06863,1.04269 6.50588,5.52653 6.50588,8.48683 0,1.06414 0.19432,1.32681 1.584,2.14122 1.81757,1.06517 2.31019,2.23117 1.47874,3.50011 -0.35713,0.54506 -0.48172,1.2984 -0.36422,2.20229 0.0982,0.75563 0.1853,2.53093 0.19349,3.94512 0.0182,3.1386 -0.5221,3.95513 -2.6171,3.95513 -1.84528,0 -2.74435,0.5294 -2.74435,1.61594 0,1.12553 1.47221,2.61739 2.58292,2.61739 0.60402,0 1.12586,-0.4152 1.79756,-1.43021 1.17199,-1.77099 4.33953,-3.8588 7.14159,-4.70719 1.77705,-0.53805 2.22504,-0.84322 2.79371,-1.90305 1.03701,-1.93269 3.75979,-4.41522 6.10294,-5.56443 2.39115,-1.17274 2.34471,-0.82058 0.68276,-5.17694 -0.75351,-1.97512 -1.48011,-3.16888 -2.62664,-4.31542 -1.54072,-1.54071 -1.60901,-1.56924 -2.44519,-1.02135 -0.47312,0.30999 -0.86021,0.69194 -0.86021,0.84876 0,0.66597 -2.02052,2.60605 -3.33679,3.20395 -0.78414,0.35618 -2.24503,0.65109 -3.24643,0.65536 -1.60064,0.007 -1.93,-0.12212 -2.72475,-1.06663 -1.21208,-1.44047 -1.75178,-3.61366 -1.48541,-5.98118 0.17228,-1.53126 0.42194,-2.11003 1.18431,-2.74553 2.89956,-2.41699 7.76138,-4.25004 10.10589,-3.81021 0.70518,0.1323 1.7947,0.68153 2.42114,1.22053 1.8508,1.59244 4.18201,3.07715 8.41049,5.35653 5.85791,3.15773 9.72125,6.53303 11.55788,10.09785 0.86458,1.67809 0.19795,4.08394 -1.83169,6.61057 -0.63547,0.79107 -1.82859,2.62894 -2.65139,4.08415 -2.75162,4.86655 -6.85389,8.76549 -11.87842,11.28967 -2.29128,1.15107 -2.47524,1.3247 -2.25206,2.12564 0.13366,0.4797 0.25884,2.48199 0.27818,4.44954 0.0393,3.99723 -0.87113,8.23934 -2.71497,12.65042 -0.99192,2.37298 -1.02041,2.59347 -0.72934,5.64445 0.28191,2.95499 -0.0469,9.60594 -0.61534,12.44835 -0.12469,0.62348 -0.11551,1.13359 0.0204,1.13359 0.13592,0 1.34426,-0.64076 2.68521,-1.42392 7.74226,-4.52172 15.07894,-12.06833 19.36503,-19.91913 6.58057,-12.0536 7.95364,-27.13538 3.66139,-40.21667 -2.55619,-7.79032 -6.39913,-13.9274 -12.61074,-20.13901 -7.89086,-7.890854 -16.66711,-12.523629 -27.39444,-14.460869 -4.476393,-0.80839 -12.77252,-0.80657 -17.260961,0.0038 -24.620808,4.445116 -42.328618,25.366349 -42.420328,50.118309 -0.02377,6.41391 0.643015,10.66994 2.596067,16.57058 5.521406,16.6815 18.776576,28.93115 36.118437,33.37853 5.927001,1.52 5.639914,1.61365 6.314066,-2.05953 z m -40.012525,-46.8411 c -0.332174,-0.40025 -0.385633,-1.41704 -0.207637,-3.94924 1.625789,-23.12873 20.218086,-41.624945 43.251736,-43.028216 2.910823,-0.177335 3.432218,-0.123148 3.868046,0.401995 0.993641,1.197261 0.06367,1.758428 -3.37318,2.035464 -11.216121,0.904106 -20.080524,4.829977 -27.856522,12.337117 -7.189731,6.94115 -11.55569,15.37447 -13.023959,25.15718 -0.291212,1.94028 -0.530413,4.25009 -0.531557,5.13292 -0.0029,2.20712 -1.079259,3.17514 -2.126927,1.91278 z"
         id="path828"
         inkscape:connector-curvature="0" />
    </g>
  </g>
</svg>
